<?xml version="1.0" encoding="UTF-8"?>
<svg xmlns="http://www.w3.org/2000/svg" version="1.1" width="1024" height="1024" viewBox="0 0 500 500"><rect x="0" y="0" width="500" height="500" fill="#ffffff"/><g transform="scale(16.129)"><g transform="translate(1,1)"><g><g transform="translate(3.5,3.5)"><path fill-rule="evenodd" d="M-3.5 0C-3.5 3.5 -3.5 3.5 0 3.5C3.5 3.5 3.5 3.5 3.5 0C3.5 -3.5 3.5 -3.5 0 -3.5C-3.5 -3.5 -3.5 -3.5 -3.5 0ZM-2.5 0L-2.5 -1.5A1 1 0 0 1 -1.5 -2.5L1.5 -2.5A1 1 0 0 1 2.5 -1.5L2.5 1.5A1 1 0 0 1 1.5 2.5L-1.5 2.5A1 1 0 0 1 -2.5 1.5Z" fill="#000000"/><path fill-rule="evenodd" d="M-1.5 0C-1.5 1.5 -1.5 1.5 0 1.5C1.5 1.5 1.5 1.5 1.5 0C1.5 -1.5 1.5 -1.5 0 -1.5C-1.5 -1.5 -1.5 -1.5 -1.5 0Z" fill="#000000"/></g></g><g><g transform="translate(25.5,3.5)"><g transform="rotate(90)"><path fill-rule="evenodd" d="M-3.5 0C-3.5 3.5 -3.5 3.5 0 3.5C3.5 3.5 3.5 3.5 3.5 0C3.5 -3.5 3.5 -3.5 0 -3.5C-3.5 -3.5 -3.5 -3.5 -3.5 0ZM-2.5 0L-2.5 -1.5A1 1 0 0 1 -1.5 -2.5L1.5 -2.5A1 1 0 0 1 2.5 -1.5L2.5 1.5A1 1 0 0 1 1.5 2.5L-1.5 2.5A1 1 0 0 1 -2.5 1.5Z" fill="#000000"/><path fill-rule="evenodd" d="M-1.5 0C-1.5 1.5 -1.5 1.5 0 1.5C1.5 1.5 1.5 1.5 1.5 0C1.5 -1.5 1.5 -1.5 0 -1.5C-1.5 -1.5 -1.5 -1.5 -1.5 0Z" fill="#000000"/></g></g></g><g><g transform="translate(3.5,25.5)"><g transform="rotate(-90)"><path fill-rule="evenodd" d="M-3.5 0C-3.5 3.5 -3.5 3.5 0 3.5C3.5 3.5 3.5 3.5 3.5 0C3.5 -3.5 3.5 -3.5 0 -3.5C-3.5 -3.5 -3.5 -3.5 -3.5 0ZM-2.5 0L-2.5 -1.5A1 1 0 0 1 -1.5 -2.5L1.5 -2.5A1 1 0 0 1 2.5 -1.5L2.5 1.5A1 1 0 0 1 1.5 2.5L-1.5 2.5A1 1 0 0 1 -2.5 1.5Z" fill="#000000"/><path fill-rule="evenodd" d="M-1.5 0C-1.5 1.5 -1.5 1.5 0 1.5C1.5 1.5 1.5 1.5 1.5 0C1.5 -1.5 1.5 -1.5 0 -1.5C-1.5 -1.5 -1.5 -1.5 -1.5 0Z" fill="#000000"/></g></g></g><defs><linearGradient gradientUnits="userSpaceOnUse" x1="0" y1="0" x2="0" y2="29" id="g1"><stop offset="0%" stop-color="#000000"/><stop offset="100%" stop-color="#377591"/></linearGradient></defs><path fill-rule="evenodd" d="M9 0.25L9 0.75A0.25 0.25 0 0 0 9.25 1L10.75 1A0.25 0.25 0 0 0 11 0.75L11 0.25A0.25 0.25 0 0 0 10.75 0L9.25 0A0.25 0.25 0 0 0 9 0.25ZM13 0.25L13 0.75A0.25 0.25 0 0 1 12.75 1L12.25 1A0.25 0.25 0 0 0 12 1.25L12 1.75A0.25 0.25 0 0 1 11.75 2L11.25 2A0.25 0.25 0 0 0 11 2.25L11 2.75A0.25 0.25 0 0 1 10.75 3L10.25 3A0.25 0.25 0 0 1 10 2.75L10 2.25A0.25 0.25 0 0 0 9.75 2L8.25 2A0.25 0.25 0 0 0 8 2.25L8 7.75A0.25 0.25 0 0 0 8.25 8L9.75 8A0.25 0.25 0 0 1 10 8.25L10 8.75A0.25 0.25 0 0 1 9.75 9L9.25 9A0.25 0.25 0 0 0 9 9.25L9 9.75A0.25 0.25 0 0 1 8.75 10L8.25 10A0.25 0.25 0 0 1 8 9.75L8 9.25A0.25 0.25 0 0 0 7.75 9L7.25 9A0.25 0.25 0 0 1 7 8.75L7 8.25A0.25 0.25 0 0 0 6.75 8L2.25 8A0.25 0.25 0 0 0 2 8.25L2 10.75A0.25 0.25 0 0 1 1.75 11L1.25 11A0.25 0.25 0 0 1 1 10.75L1 10.25A0.25 0.25 0 0 0 0.75 10L0.25 10A0.25 0.25 0 0 0 0 10.25L0 10.75A0.25 0.25 0 0 0 0.25 11L0.75 11A0.25 0.25 0 0 1 1 11.25L1 12.75A0.25 0.25 0 0 0 1.25 13L1.75 13A0.25 0.25 0 0 0 2 12.75L2 12.25A0.25 0.25 0 0 1 2.25 12L2.75 12A0.25 0.25 0 0 1 3 12.25L3 14.75A0.25 0.25 0 0 0 3.25 15L8.75 15A0.25 0.25 0 0 1 9 15.25L9 16.75A0.25 0.25 0 0 1 8.75 17L7.25 17A0.25 0.25 0 0 1 7 16.75L7 16.25A0.25 0.25 0 0 0 6.75 16L6.25 16A0.25 0.25 0 0 0 6 16.25L6 16.75A0.25 0.25 0 0 0 6.25 17L6.75 17A0.25 0.25 0 0 1 7 17.25L7 17.75A0.25 0.25 0 0 1 6.75 18L5.25 18A0.25 0.25 0 0 1 5 17.75L5 17.25A0.25 0.25 0 0 0 4.75 17L3.25 17A0.25 0.25 0 0 1 3 16.75L3 16.25A0.25 0.25 0 0 0 2.75 16L2.25 16A0.25 0.25 0 0 0 2 16.25L2 17.75A0.25 0.25 0 0 0 2.25 18L2.75 18A0.25 0.25 0 0 1 3 18.25L3 18.75A0.25 0.25 0 0 1 2.75 19L2.25 19A0.25 0.25 0 0 0 2 19.25L2 19.75A0.25 0.25 0 0 0 2.25 20L2.75 20A0.25 0.25 0 0 1 3 20.25L3 20.75A0.25 0.25 0 0 0 3.25 21L7.75 21A0.25 0.25 0 0 1 8 21.25L8 21.75A0.25 0.25 0 0 0 8.25 22L8.75 22A0.25 0.25 0 0 1 9 22.25L9 22.75A0.25 0.25 0 0 1 8.75 23L8.25 23A0.25 0.25 0 0 0 8 23.25L8 26.75A0.25 0.25 0 0 0 8.25 27L9.75 27A0.25 0.25 0 0 1 10 27.25L10 27.75A0.25 0.25 0 0 0 10.25 28L11.75 28A0.25 0.25 0 0 1 12 28.25L12 28.75A0.25 0.25 0 0 0 12.25 29L12.75 29A0.25 0.25 0 0 0 13 28.75L13 28.25A0.25 0.25 0 0 1 13.25 28L13.75 28A0.25 0.25 0 0 1 14 28.25L14 28.75A0.25 0.25 0 0 0 14.25 29L16.75 29A0.25 0.25 0 0 0 17 28.75L17 27.25A0.25 0.25 0 0 1 17.25 27L17.75 27A0.25 0.25 0 0 1 18 27.25L18 28.75A0.25 0.25 0 0 0 18.25 29L19.75 29A0.25 0.25 0 0 0 20 28.75L20 28.25A0.25 0.25 0 0 0 19.75 28L19.25 28A0.25 0.25 0 0 1 19 27.75L19 27.25A0.25 0.25 0 0 0 18.75 27L18.25 27A0.25 0.25 0 0 1 18 26.75L18 26.25A0.25 0.25 0 0 0 17.75 26L17.25 26A0.25 0.25 0 0 1 17 25.75L17 25.25A0.25 0.25 0 0 0 16.75 25L16.25 25A0.25 0.25 0 0 1 16 24.75L16 24.25A0.25 0.25 0 0 0 15.75 24L15.25 24A0.25 0.25 0 0 1 15 23.75L15 23.25A0.25 0.25 0 0 1 15.25 23L16.75 23A0.25 0.25 0 0 1 17 23.25L17 23.75A0.25 0.25 0 0 0 17.25 24L17.75 24A0.25 0.25 0 0 1 18 24.25L18 24.75A0.25 0.25 0 0 0 18.25 25L19.75 25A0.25 0.25 0 0 1 20 25.25L20 25.75A0.25 0.25 0 0 0 20.25 26L20.75 26A0.25 0.25 0 0 0 21 25.75L21 25.25A0.25 0.25 0 0 1 21.25 25L22.75 25A0.25 0.25 0 0 1 23 25.25L23 26.75A0.25 0.25 0 0 0 23.25 27L23.75 27A0.25 0.25 0 0 0 24 26.75L24 25.25A0.25 0.25 0 0 1 24.25 25L24.75 25A0.25 0.25 0 0 0 25 24.75L25 23.25A0.25 0.25 0 0 1 25.25 23L25.75 23A0.25 0.25 0 0 1 26 23.25L26 24.75A0.25 0.25 0 0 0 26.25 25L28.75 25A0.25 0.25 0 0 0 29 24.75L29 23.25A0.25 0.25 0 0 0 28.75 23L27.25 23A0.25 0.25 0 0 1 27 22.75L27 22.25A0.25 0.25 0 0 1 27.25 22L27.75 22A0.25 0.25 0 0 0 28 21.75L28 20.25A0.25 0.25 0 0 1 28.25 20L28.75 20A0.25 0.25 0 0 0 29 19.75L29 19.25A0.25 0.25 0 0 0 28.75 19L28.25 19A0.25 0.25 0 0 1 28 18.75L28 18.25A0.25 0.25 0 0 1 28.25 18L28.75 18A0.25 0.25 0 0 0 29 17.75L29 17.25A0.25 0.25 0 0 0 28.75 17L27.25 17A0.25 0.25 0 0 0 27 17.25L27 17.75A0.25 0.25 0 0 1 26.75 18L26.25 18A0.25 0.25 0 0 1 26 17.75L26 17.25A0.25 0.25 0 0 0 25.75 17L24.25 17A0.25 0.25 0 0 1 24 16.75L24 16.25A0.25 0.25 0 0 1 24.25 16L24.75 16A0.25 0.25 0 0 0 25 15.75L25 15.25A0.25 0.25 0 0 1 25.25 15L26.75 15A0.25 0.25 0 0 1 27 15.25L27 15.75A0.25 0.25 0 0 0 27.25 16L28.75 16A0.25 0.25 0 0 0 29 15.75L29 14.25A0.25 0.25 0 0 0 28.75 14L28.25 14A0.25 0.25 0 0 1 28 13.75L28 13.25A0.25 0.25 0 0 0 27.75 13L27.25 13A0.25 0.25 0 0 0 27 13.25L27 13.75A0.25 0.25 0 0 1 26.75 14L26.25 14A0.25 0.25 0 0 1 26 13.75L26 13.25A0.25 0.25 0 0 0 25.75 13L24.25 13A0.25 0.25 0 0 1 24 12.75L24 12.25A0.25 0.25 0 0 1 24.25 12L25.75 12A0.25 0.25 0 0 0 26 11.75L26 11.25A0.25 0.25 0 0 1 26.25 11L26.75 11A0.25 0.25 0 0 0 27 10.75L27 10.25A0.25 0.25 0 0 1 27.25 10L27.75 10A0.25 0.25 0 0 0 28 9.75L28 9.25A0.25 0.25 0 0 0 27.75 9L27.25 9A0.25 0.25 0 0 1 27 8.75L27 8.25A0.25 0.25 0 0 0 26.75 8L22.25 8A0.25 0.25 0 0 0 22 8.25L22 8.75A0.25 0.25 0 0 0 22.25 9L23.75 9A0.25 0.25 0 0 1 24 9.25L24 9.75A0.25 0.25 0 0 0 24.25 10L24.75 10A0.25 0.25 0 0 1 25 10.25L25 10.75A0.25 0.25 0 0 1 24.75 11L18.25 11A0.25 0.25 0 0 1 18 10.75L18 10.25A0.25 0.25 0 0 0 17.75 10L17.25 10A0.25 0.25 0 0 1 17 9.75L17 9.25A0.25 0.25 0 0 1 17.25 9L17.75 9A0.25 0.25 0 0 0 18 8.75L18 8.25A0.25 0.25 0 0 0 17.75 8L17.25 8A0.25 0.25 0 0 1 17 7.75L17 6.25A0.25 0.25 0 0 1 17.25 6L17.75 6A0.25 0.25 0 0 1 18 6.25L18 6.75A0.25 0.25 0 0 0 18.25 7L18.75 7A0.25 0.25 0 0 1 19 7.25L19 7.75A0.25 0.25 0 0 0 19.25 8L19.75 8A0.25 0.25 0 0 1 20 8.25L20 8.75A0.25 0.25 0 0 1 19.75 9L19.25 9A0.25 0.25 0 0 0 19 9.25L19 9.75A0.25 0.25 0 0 0 19.25 10L20.75 10A0.25 0.25 0 0 0 21 9.75L21 6.25A0.25 0.25 0 0 0 20.75 6L20.25 6A0.25 0.25 0 0 0 20 6.25L20 6.75A0.25 0.25 0 0 1 19.75 7L19.25 7A0.25 0.25 0 0 1 19 6.75L19 4.25A0.25 0.25 0 0 0 18.75 4L18.25 4A0.25 0.25 0 0 1 18 3.75L18 3.25A0.25 0.25 0 0 0 17.75 3L17.25 3A0.25 0.25 0 0 0 17 3.25L17 3.75A0.25 0.25 0 0 0 17.25 4L17.75 4A0.25 0.25 0 0 1 18 4.25L18 4.75A0.25 0.25 0 0 1 17.75 5L17.25 5A0.25 0.25 0 0 0 17 5.25L17 5.75A0.25 0.25 0 0 1 16.75 6L16.25 6A0.25 0.25 0 0 1 16 5.75L16 5.25A0.25 0.25 0 0 0 15.75 5L15.25 5A0.25 0.25 0 0 0 15 5.25L15 5.75A0.25 0.25 0 0 1 14.75 6L14.25 6A0.25 0.25 0 0 0 14 6.25L14 7.75A0.25 0.25 0 0 0 14.25 8L14.75 8A0.25 0.25 0 0 1 15 8.25L15 8.75A0.25 0.25 0 0 1 14.75 9L13.25 9A0.25 0.25 0 0 1 13 8.75L13 8.25A0.25 0.25 0 0 0 12.75 8L12.25 8A0.25 0.25 0 0 0 12 8.25L12 9.75A0.25 0.25 0 0 1 11.75 10L11.25 10A0.25 0.25 0 0 0 11 10.25L11 10.75A0.25 0.25 0 0 1 10.75 11L10.25 11A0.25 0.25 0 0 0 10 11.25L10 12.75A0.25 0.25 0 0 0 10.25 13L12.75 13A0.25 0.25 0 0 0 13 12.75L13 12.25A0.25 0.25 0 0 1 13.25 12L13.75 12A0.25 0.25 0 0 1 14 12.25L14 12.75A0.25 0.25 0 0 0 14.25 13L14.75 13A0.25 0.25 0 0 1 15 13.25L15 14.75A0.25 0.25 0 0 1 14.75 15L14.25 15A0.25 0.25 0 0 0 14 15.25L14 15.75A0.25 0.25 0 0 0 14.25 16L14.75 16A0.25 0.25 0 0 1 15 16.25L15 16.75A0.25 0.25 0 0 1 14.75 17L13.25 17A0.25 0.25 0 0 1 13 16.75L13 14.25A0.25 0.25 0 0 0 12.75 14L12.25 14A0.25 0.25 0 0 0 12 14.25L12 14.75A0.25 0.25 0 0 1 11.75 15L11.25 15A0.25 0.25 0 0 1 11 14.75L11 14.25A0.25 0.25 0 0 0 10.75 14L10.25 14A0.25 0.25 0 0 0 10 14.25L10 14.75A0.25 0.25 0 0 1 9.75 15L9.25 15A0.25 0.25 0 0 1 9 14.75L9 14.25A0.25 0.25 0 0 0 8.75 14L8.25 14A0.25 0.25 0 0 1 8 13.75L8 11.25A0.25 0.25 0 0 1 8.25 11L8.75 11A0.25 0.25 0 0 0 9 10.75L9 10.25A0.25 0.25 0 0 1 9.25 10L9.75 10A0.25 0.25 0 0 0 10 9.75L10 9.25A0.25 0.25 0 0 1 10.25 9L10.75 9A0.25 0.25 0 0 0 11 8.75L11 5.25A0.25 0.25 0 0 1 11.25 5L12.75 5A0.25 0.25 0 0 0 13 4.75L13 4.25A0.25 0.25 0 0 0 12.75 4L12.25 4A0.25 0.25 0 0 1 12 3.75L12 2.25A0.25 0.25 0 0 1 12.25 2L12.75 2A0.25 0.25 0 0 1 13 2.25L13 2.75A0.25 0.25 0 0 0 13.25 3L13.75 3A0.25 0.25 0 0 1 14 3.25L14 3.75A0.25 0.25 0 0 0 14.25 4L15.75 4A0.25 0.25 0 0 0 16 3.75L16 0.25A0.25 0.25 0 0 0 15.75 0L15.25 0A0.25 0.25 0 0 0 15 0.25L15 0.75A0.25 0.25 0 0 1 14.75 1L14.25 1A0.25 0.25 0 0 1 14 0.75L14 0.25A0.25 0.25 0 0 0 13.75 0L13.25 0A0.25 0.25 0 0 0 13 0.25ZM19 0.25L19 0.75A0.25 0.25 0 0 1 18.75 1L17.25 1A0.25 0.25 0 0 0 17 1.25L17 1.75A0.25 0.25 0 0 0 17.25 2L18.75 2A0.25 0.25 0 0 1 19 2.25L19 2.75A0.25 0.25 0 0 0 19.25 3L19.75 3A0.25 0.25 0 0 1 20 3.25L20 4.75A0.25 0.25 0 0 0 20.25 5L20.75 5A0.25 0.25 0 0 0 21 4.75L21 3.25A0.25 0.25 0 0 0 20.75 3L20.25 3A0.25 0.25 0 0 1 20 2.75L20 1.25A0.25 0.25 0 0 1 20.25 1L20.75 1A0.25 0.25 0 0 0 21 0.75L21 0.25A0.25 0.25 0 0 0 20.75 0L19.25 0A0.25 0.25 0 0 0 19 0.25ZM14 2.25L14 2.75A0.25 0.25 0 0 0 14.25 3L14.75 3A0.25 0.25 0 0 0 15 2.75L15 2.25A0.25 0.25 0 0 0 14.75 2L14.25 2A0.25 0.25 0 0 0 14 2.25ZM9 4.25L9 6.75A0.25 0.25 0 0 0 9.25 7L9.75 7A0.25 0.25 0 0 0 10 6.75L10 5.25A0.25 0.25 0 0 1 10.25 5L10.75 5A0.25 0.25 0 0 0 11 4.75L11 4.25A0.25 0.25 0 0 0 10.75 4L9.25 4A0.25 0.25 0 0 0 9 4.25ZM12 6.25L12 6.75A0.25 0.25 0 0 0 12.25 7L12.75 7A0.25 0.25 0 0 0 13 6.75L13 6.25A0.25 0.25 0 0 0 12.75 6L12.25 6A0.25 0.25 0 0 0 12 6.25ZM15 6.25L15 7.75A0.25 0.25 0 0 0 15.25 8L15.75 8A0.25 0.25 0 0 0 16 7.75L16 6.25A0.25 0.25 0 0 0 15.75 6L15.25 6A0.25 0.25 0 0 0 15 6.25ZM0 8.25L0 8.75A0.25 0.25 0 0 0 0.25 9L0.75 9A0.25 0.25 0 0 0 1 8.75L1 8.25A0.25 0.25 0 0 0 0.75 8L0.25 8A0.25 0.25 0 0 0 0 8.25ZM4 9.25L4 9.75A0.25 0.25 0 0 0 4.25 10L6.75 10A0.25 0.25 0 0 0 7 9.75L7 9.25A0.25 0.25 0 0 0 6.75 9L4.25 9A0.25 0.25 0 0 0 4 9.25ZM26 9.25L26 9.75A0.25 0.25 0 0 0 26.25 10L26.75 10A0.25 0.25 0 0 0 27 9.75L27 9.25A0.25 0.25 0 0 0 26.75 9L26.25 9A0.25 0.25 0 0 0 26 9.25ZM4 11.25L4 12.75A0.25 0.25 0 0 0 4.25 13L4.75 13A0.25 0.25 0 0 0 5 12.75L5 11.25A0.25 0.25 0 0 0 4.75 11L4.25 11A0.25 0.25 0 0 0 4 11.25ZM6 11.25L6 11.75A0.25 0.25 0 0 0 6.25 12L6.75 12A0.25 0.25 0 0 0 7 11.75L7 11.25A0.25 0.25 0 0 0 6.75 11L6.25 11A0.25 0.25 0 0 0 6 11.25ZM11 11.25L11 11.75A0.25 0.25 0 0 0 11.25 12L12.75 12A0.25 0.25 0 0 0 13 11.75L13 11.25A0.25 0.25 0 0 0 12.75 11L11.25 11A0.25 0.25 0 0 0 11 11.25ZM14 11.25L14 11.75A0.25 0.25 0 0 0 14.25 12L15.75 12A0.25 0.25 0 0 1 16 12.25L16 12.75A0.25 0.25 0 0 0 16.25 13L16.75 13A0.25 0.25 0 0 1 17 13.25L17 13.75A0.25 0.25 0 0 1 16.75 14L16.25 14A0.25 0.25 0 0 0 16 14.25L16 14.75A0.25 0.25 0 0 1 15.75 15L15.25 15A0.25 0.25 0 0 0 15 15.25L15 15.75A0.25 0.25 0 0 0 15.25 16L15.75 16A0.25 0.25 0 0 0 16 15.75L16 15.25A0.25 0.25 0 0 1 16.25 15L16.75 15A0.25 0.25 0 0 0 17 14.75L17 14.25A0.25 0.25 0 0 1 17.25 14L17.75 14A0.25 0.25 0 0 0 18 13.75L18 13.25A0.25 0.25 0 0 0 17.75 13L17.25 13A0.25 0.25 0 0 1 17 12.75L17 12.25A0.25 0.25 0 0 1 17.25 12L17.75 12A0.25 0.25 0 0 0 18 11.75L18 11.25A0.25 0.25 0 0 0 17.75 11L14.25 11A0.25 0.25 0 0 0 14 11.25ZM28 11.25L28 11.75A0.25 0.25 0 0 0 28.25 12L28.75 12A0.25 0.25 0 0 0 29 11.75L29 11.25A0.25 0.25 0 0 0 28.75 11L28.25 11A0.25 0.25 0 0 0 28 11.25ZM19 12.25L19 14.75A0.25 0.25 0 0 1 18.75 15L18.25 15A0.25 0.25 0 0 0 18 15.25L18 15.75A0.25 0.25 0 0 1 17.75 16L17.25 16A0.25 0.25 0 0 0 17 16.25L17 16.75A0.25 0.25 0 0 1 16.75 17L16.25 17A0.25 0.25 0 0 0 16 17.25L16 17.75A0.25 0.25 0 0 1 15.75 18L15.25 18A0.25 0.25 0 0 0 15 18.25L15 18.75A0.25 0.25 0 0 1 14.75 19L14.25 19A0.25 0.25 0 0 0 14 19.25L14 19.75A0.25 0.25 0 0 1 13.75 20L13.25 20A0.25 0.25 0 0 1 13 19.75L13 18.25A0.25 0.25 0 0 0 12.75 18L11.25 18A0.25 0.25 0 0 0 11 18.25L11 18.75A0.25 0.25 0 0 1 10.75 19L10.25 19A0.25 0.25 0 0 1 10 18.75L10 18.25A0.25 0.25 0 0 0 9.75 18L8.25 18A0.25 0.25 0 0 0 8 18.25L8 18.75A0.25 0.25 0 0 1 7.75 19L5.25 19A0.25 0.25 0 0 0 5 19.25L5 19.75A0.25 0.25 0 0 0 5.25 20L7.75 20A0.25 0.25 0 0 1 8 20.25L8 20.75A0.25 0.25 0 0 0 8.25 21L8.75 21A0.25 0.25 0 0 0 9 20.75L9 20.25A0.25 0.25 0 0 1 9.25 20L9.75 20A0.25 0.25 0 0 1 10 20.25L10 21.75A0.25 0.25 0 0 0 10.25 22L12.75 22A0.25 0.25 0 0 1 13 22.25L13 23.75A0.25 0.25 0 0 1 12.75 24L12.25 24A0.25 0.25 0 0 1 12 23.75L12 23.25A0.25 0.25 0 0 0 11.75 23L10.25 23A0.25 0.25 0 0 0 10 23.25L10 24.75A0.25 0.25 0 0 0 10.25 25L14.75 25A0.25 0.25 0 0 0 15 24.75L15 24.25A0.25 0.25 0 0 0 14.75 24L14.25 24A0.25 0.25 0 0 1 14 23.75L14 23.25A0.25 0.25 0 0 1 14.25 23L14.75 23A0.25 0.25 0 0 0 15 22.75L15 22.25A0.25 0.25 0 0 1 15.25 22L15.75 22A0.25 0.25 0 0 0 16 21.75L16 21.25A0.25 0.25 0 0 1 16.25 21L16.75 21A0.25 0.25 0 0 1 17 21.25L17 21.75A0.25 0.25 0 0 0 17.25 22L19.75 22A0.25 0.25 0 0 0 20 21.75L20 20.25A0.25 0.25 0 0 0 19.75 20L19.25 20A0.25 0.25 0 0 1 19 19.75L19 19.25A0.25 0.25 0 0 1 19.25 19L19.75 19A0.25 0.25 0 0 0 20 18.75L20 18.25A0.25 0.25 0 0 1 20.25 18L20.75 18A0.25 0.25 0 0 1 21 18.25L21 18.75A0.25 0.25 0 0 0 21.25 19L22.75 19A0.25 0.25 0 0 0 23 18.75L23 18.25A0.25 0.25 0 0 1 23.25 18L23.75 18A0.25 0.25 0 0 1 24 18.25L24 18.75A0.25 0.25 0 0 0 24.25 19L24.75 19A0.25 0.25 0 0 1 25 19.25L25 19.75A0.25 0.25 0 0 0 25.25 20L26.75 20A0.25 0.25 0 0 0 27 19.75L27 19.25A0.25 0.25 0 0 0 26.75 19L25.25 19A0.25 0.25 0 0 1 25 18.75L25 18.25A0.25 0.25 0 0 0 24.75 18L24.25 18A0.25 0.25 0 0 1 24 17.75L24 17.25A0.25 0.25 0 0 0 23.75 17L23.25 17A0.25 0.25 0 0 0 23 17.25L23 17.75A0.25 0.25 0 0 1 22.75 18L21.25 18A0.25 0.25 0 0 1 21 17.75L21 17.25A0.25 0.25 0 0 1 21.25 17L21.75 17A0.25 0.25 0 0 0 22 16.75L22 16.25A0.25 0.25 0 0 0 21.75 16L19.25 16A0.25 0.25 0 0 1 19 15.75L19 15.25A0.25 0.25 0 0 1 19.25 15L24.75 15A0.25 0.25 0 0 0 25 14.75L25 14.25A0.25 0.25 0 0 0 24.75 14L24.25 14A0.25 0.25 0 0 1 24 13.75L24 13.25A0.25 0.25 0 0 0 23.75 13L23.25 13A0.25 0.25 0 0 0 23 13.25L23 13.75A0.25 0.25 0 0 1 22.75 14L21.25 14A0.25 0.25 0 0 1 21 13.75L21 13.25A0.25 0.25 0 0 1 21.25 13L21.75 13A0.25 0.25 0 0 0 22 12.75L22 12.25A0.25 0.25 0 0 0 21.75 12L21.25 12A0.25 0.25 0 0 0 21 12.25L21 12.75A0.25 0.25 0 0 1 20.75 13L20.25 13A0.25 0.25 0 0 1 20 12.75L20 12.25A0.25 0.25 0 0 0 19.75 12L19.25 12A0.25 0.25 0 0 0 19 12.25ZM6 13.25L6 13.75A0.25 0.25 0 0 0 6.25 14L6.75 14A0.25 0.25 0 0 0 7 13.75L7 13.25A0.25 0.25 0 0 0 6.75 13L6.25 13A0.25 0.25 0 0 0 6 13.25ZM0 14.25L0 14.75A0.25 0.25 0 0 0 0.25 15L1.75 15A0.25 0.25 0 0 0 2 14.75L2 14.25A0.25 0.25 0 0 0 1.75 14L0.25 14A0.25 0.25 0 0 0 0 14.25ZM18 16.25L18 17.75A0.25 0.25 0 0 1 17.75 18L16.25 18A0.25 0.25 0 0 0 16 18.25L16 18.75A0.25 0.25 0 0 0 16.25 19L18.75 19A0.25 0.25 0 0 0 19 18.75L19 16.25A0.25 0.25 0 0 0 18.75 16L18.25 16A0.25 0.25 0 0 0 18 16.25ZM0 17.25L0 20.75A0.25 0.25 0 0 0 0.25 21L0.75 21A0.25 0.25 0 0 0 1 20.75L1 17.25A0.25 0.25 0 0 0 0.75 17L0.25 17A0.25 0.25 0 0 0 0 17.25ZM3 19.25L3 19.75A0.25 0.25 0 0 0 3.25 20L3.75 20A0.25 0.25 0 0 0 4 19.75L4 19.25A0.25 0.25 0 0 0 3.75 19L3.25 19A0.25 0.25 0 0 0 3 19.25ZM8 19.25L8 19.75A0.25 0.25 0 0 0 8.25 20L8.75 20A0.25 0.25 0 0 0 9 19.75L9 19.25A0.25 0.25 0 0 0 8.75 19L8.25 19A0.25 0.25 0 0 0 8 19.25ZM11 19.25L11 20.75A0.25 0.25 0 0 0 11.25 21L12.75 21A0.25 0.25 0 0 0 13 20.75L13 20.25A0.25 0.25 0 0 0 12.75 20L12.25 20A0.25 0.25 0 0 1 12 19.75L12 19.25A0.25 0.25 0 0 0 11.75 19L11.25 19A0.25 0.25 0 0 0 11 19.25ZM14 20.25L14 20.75A0.25 0.25 0 0 0 14.25 21L15.75 21A0.25 0.25 0 0 0 16 20.75L16 20.25A0.25 0.25 0 0 0 15.75 20L14.25 20A0.25 0.25 0 0 0 14 20.25ZM17 20.25L17 20.75A0.25 0.25 0 0 0 17.25 21L18.75 21A0.25 0.25 0 0 0 19 20.75L19 20.25A0.25 0.25 0 0 0 18.75 20L17.25 20A0.25 0.25 0 0 0 17 20.25ZM21 21.25L21 23.75A0.25 0.25 0 0 0 21.25 24L23.75 24A0.25 0.25 0 0 0 24 23.75L24 21.25A0.25 0.25 0 0 0 23.75 21L21.25 21A0.25 0.25 0 0 0 21 21.25ZM25 21.25L25 21.75A0.25 0.25 0 0 0 25.25 22L26.75 22A0.25 0.25 0 0 0 27 21.75L27 21.25A0.25 0.25 0 0 0 26.75 21L25.25 21A0.25 0.25 0 0 0 25 21.25ZM22 22.25L22 22.75A0.25 0.25 0 0 0 22.25 23L22.75 23A0.25 0.25 0 0 0 23 22.75L23 22.25A0.25 0.25 0 0 0 22.75 22L22.25 22A0.25 0.25 0 0 0 22 22.25ZM18 23.25L18 23.75A0.25 0.25 0 0 0 18.25 24L18.75 24A0.25 0.25 0 0 0 19 23.75L19 23.25A0.25 0.25 0 0 0 18.75 23L18.25 23A0.25 0.25 0 0 0 18 23.25ZM12 26.25L12 27.75A0.25 0.25 0 0 0 12.25 28L12.75 28A0.25 0.25 0 0 0 13 27.75L13 26.25A0.25 0.25 0 0 0 12.75 26L12.25 26A0.25 0.25 0 0 0 12 26.25ZM14 26.25L14 27.75A0.25 0.25 0 0 0 14.25 28L15.75 28A0.25 0.25 0 0 0 16 27.75L16 27.25A0.25 0.25 0 0 1 16.25 27L16.75 27A0.25 0.25 0 0 0 17 26.75L17 26.25A0.25 0.25 0 0 0 16.75 26L16.25 26A0.25 0.25 0 0 0 16 26.25L16 26.75A0.25 0.25 0 0 1 15.75 27L15.25 27A0.25 0.25 0 0 1 15 26.75L15 26.25A0.25 0.25 0 0 0 14.75 26L14.25 26A0.25 0.25 0 0 0 14 26.25ZM26 26.25L26 26.75A0.25 0.25 0 0 1 25.75 27L25.25 27A0.25 0.25 0 0 0 25 27.25L25 27.75A0.25 0.25 0 0 1 24.75 28L24.25 28A0.25 0.25 0 0 0 24 28.25L24 28.75A0.25 0.25 0 0 0 24.25 29L26.75 29A0.25 0.25 0 0 0 27 28.75L27 27.25A0.25 0.25 0 0 1 27.25 27L27.75 27A0.25 0.25 0 0 1 28 27.25L28 27.75A0.25 0.25 0 0 0 28.25 28L28.75 28A0.25 0.25 0 0 0 29 27.75L29 27.25A0.25 0.25 0 0 0 28.75 27L28.25 27A0.25 0.25 0 0 1 28 26.75L28 26.25A0.25 0.25 0 0 0 27.75 26L26.25 26A0.25 0.25 0 0 0 26 26.25ZM8 28.25L8 28.75A0.25 0.25 0 0 0 8.25 29L8.75 29A0.25 0.25 0 0 0 9 28.75L9 28.25A0.25 0.25 0 0 0 8.75 28L8.25 28A0.25 0.25 0 0 0 8 28.25ZM21 28.25L21 28.75A0.25 0.25 0 0 0 21.25 29L22.75 29A0.25 0.25 0 0 0 23 28.75L23 28.25A0.25 0.25 0 0 0 22.75 28L21.25 28A0.25 0.25 0 0 0 21 28.25Z" fill="url(#g1)"/></g></g></svg>
